<mxfile host="app.diagrams.net" agent="Mozilla/5.0 (Windows NT 10.0; Win64; x64) AppleWebKit/537.36 (KHTML, like Gecko) Chrome/137.0.0.0 Safari/537.36 Edg/137.0.0.0" version="27.1.4">
  <diagram name="Página-1" id="as40btJ54e6DwOAYy4ld">
    <mxGraphModel dx="1034" dy="570" grid="0" gridSize="10" guides="1" tooltips="1" connect="1" arrows="1" fold="1" page="1" pageScale="1" pageWidth="600" pageHeight="400" math="0" shadow="0">
      <root>
        <mxCell id="0" />
        <mxCell id="1" parent="0" />
        <mxCell id="COEKGmfpDfsZIMyPhy94-3" value="&lt;span style=&quot;font-size: 18px;&quot;&gt;MODELO DE REFERÊNCIA ÁGIL&lt;/span&gt;" style="text;html=1;align=center;verticalAlign=middle;whiteSpace=wrap;rounded=0;fontColor=#3333FF;" vertex="1" parent="1">
          <mxGeometry x="162" y="26" width="297" height="70" as="geometry" />
        </mxCell>
        <mxCell id="COEKGmfpDfsZIMyPhy94-66" value="&lt;u&gt;SAFE&lt;/u&gt;&lt;br&gt;&lt;div&gt;SCALING&lt;/div&gt;" style="rounded=0;whiteSpace=wrap;html=1;fillColor=#fff2cc;strokeColor=#d6b656;" vertex="1" parent="1">
          <mxGeometry x="112" y="108" width="176" height="116" as="geometry" />
        </mxCell>
        <mxCell id="COEKGmfpDfsZIMyPhy94-67" value="" style="rounded=0;whiteSpace=wrap;html=1;fillColor=#e1d5e7;strokeColor=#9673a6;" vertex="1" parent="1">
          <mxGeometry x="290" y="108" width="160" height="116" as="geometry" />
        </mxCell>
        <mxCell id="COEKGmfpDfsZIMyPhy94-68" value="&lt;u&gt;DISCOVERY&lt;/u&gt;" style="rounded=0;whiteSpace=wrap;html=1;fillColor=#fff2cc;strokeColor=#d6b656;" vertex="1" parent="1">
          <mxGeometry x="29" y="242" width="177" height="116" as="geometry" />
        </mxCell>
        <mxCell id="COEKGmfpDfsZIMyPhy94-69" value="EFICIÊNCIA&amp;nbsp;" style="rounded=0;whiteSpace=wrap;html=1;fillColor=#fff2cc;strokeColor=#d6b656;" vertex="1" parent="1">
          <mxGeometry x="204" y="242" width="191" height="116" as="geometry" />
        </mxCell>
        <mxCell id="COEKGmfpDfsZIMyPhy94-70" value="" style="rounded=0;whiteSpace=wrap;html=1;fillColor=#fff2cc;strokeColor=#d6b656;" vertex="1" parent="1">
          <mxGeometry x="390" y="242" width="185" height="116" as="geometry" />
        </mxCell>
        <mxCell id="COEKGmfpDfsZIMyPhy94-71" value="&lt;u&gt;MANAGEMENT 3.0&lt;/u&gt;&lt;br&gt;&lt;div&gt;GERECIAMENTO DE PESSOAS&lt;/div&gt;" style="rounded=0;whiteSpace=wrap;html=1;fillColor=#fff2cc;strokeColor=#d6b656;" vertex="1" parent="1">
          <mxGeometry x="288" y="108" width="184" height="116" as="geometry" />
        </mxCell>
        <mxCell id="COEKGmfpDfsZIMyPhy94-73" value="&lt;span style=&quot;color: rgba(0, 0, 0, 0); font-family: monospace; font-size: 0px; text-align: start; text-wrap-mode: nowrap;&quot;&gt;%3CmxGraphModel%3E%3Croot%3E%3CmxCell%20id%3D%220%22%2F%3E%3CmxCell%20id%3D%221%22%20parent%3D%220%22%2F%3E%3CmxCell%20id%3D%222%22%20value%3D%22%26lt%3Bu%26gt%3BDISCOVERY%26lt%3B%2Fu%26gt%3B%26lt%3Bbr%26gt%3B%26lt%3Bdiv%26gt%3BDESIGN%20THINKING%26lt%3B%2Fdiv%26gt%3B%22%20style%3D%22rounded%3D0%3BwhiteSpace%3Dwrap%3Bhtml%3D1%3BfillColor%3D%23fff2cc%3BstrokeColor%3D%23d6b656%3B%22%20vertex%3D%221%22%20parent%3D%221%22%3E%3CmxGeometry%20x%3D%2228%22%20y%3D%22242%22%20width%3D%22176%22%20height%3D%22116%22%20as%3D%22geometry%22%2F%3E%3C%2FmxCell%3E%3C%2Froot%3E%3C%2FmxGraphModel%3E&lt;/span&gt;&lt;span style=&quot;color: rgba(0, 0, 0, 0); font-family: monospace; font-size: 0px; text-align: start; text-wrap-mode: nowrap;&quot;&gt;%3CmxGraphModel%3E%3Croot%3E%3CmxCell%20id%3D%220%22%2F%3E%3CmxCell%20id%3D%221%22%20parent%3D%220%22%2F%3E%3CmxCell%20id%3D%222%22%20value%3D%22%26lt%3Bu%26gt%3BDISCOVERY%26lt%3B%2Fu%26gt%3B%26lt%3Bbr%26gt%3B%26lt%3Bdiv%26gt%3BDESIGN%20THINKING%26lt%3B%2Fdiv%26gt%3B%22%20style%3D%22rounded%3D0%3BwhiteSpace%3Dwrap%3Bhtml%3D1%3BfillColor%3D%23fff2cc%3BstrokeColor%3D%23d6b656%3B%22%20vertex%3D%221%22%20parent%3D%221%22%3E%3CmxGeometry%20x%3D%2228%22%20y%3D%22242%22%20width%3D%22176%22%20height%3D%22116%22%20as%3D%22geometry%22%2F%3E%3C%2FmxCell%3E%3C%2Froot%3E%3C%2FmxGraphModel%3E&lt;/span&gt;" style="rounded=0;whiteSpace=wrap;html=1;fillColor=#fff2cc;strokeColor=#d6b656;" vertex="1" parent="1">
          <mxGeometry x="204" y="242" width="186" height="116" as="geometry" />
        </mxCell>
        <mxCell id="COEKGmfpDfsZIMyPhy94-74" value="EFICÁCIA&lt;br&gt;&lt;div&gt;Redução de Ruptura de Processo&lt;/div&gt;&lt;div&gt;6 Sigma - DIMAIC&lt;/div&gt;" style="rounded=0;whiteSpace=wrap;html=1;fillColor=#fff2cc;strokeColor=#d6b656;" vertex="1" parent="1">
          <mxGeometry x="390" y="242" width="186" height="116" as="geometry" />
        </mxCell>
        <mxCell id="COEKGmfpDfsZIMyPhy94-75" value="&lt;u&gt;DISCOVERY&lt;/u&gt;&lt;br&gt;&lt;div&gt;DESIGN THINKING&lt;/div&gt;" style="rounded=0;whiteSpace=wrap;html=1;fillColor=#fff2cc;strokeColor=#d6b656;" vertex="1" parent="1">
          <mxGeometry x="28" y="242" width="176" height="116" as="geometry" />
        </mxCell>
        <mxCell id="COEKGmfpDfsZIMyPhy94-76" value="&lt;u&gt;BUILD&lt;/u&gt;&lt;br&gt;&lt;div&gt;IT4IT&lt;br&gt;LEAN&lt;br&gt;SCRUM&lt;/div&gt;&lt;div&gt;KANBAN&lt;/div&gt;&lt;div&gt;CASCATA&lt;/div&gt;" style="rounded=0;whiteSpace=wrap;html=1;fillColor=#fff2cc;strokeColor=#d6b656;" vertex="1" parent="1">
          <mxGeometry x="204" y="242" width="186" height="116" as="geometry" />
        </mxCell>
        <mxCell id="COEKGmfpDfsZIMyPhy94-77" value="&lt;u&gt;RELEASE&lt;/u&gt;&lt;br&gt;&lt;div&gt;DEVOPS&lt;/div&gt;" style="rounded=0;whiteSpace=wrap;html=1;fillColor=#fff2cc;strokeColor=#d6b656;" vertex="1" parent="1">
          <mxGeometry x="390" y="242" width="186" height="116" as="geometry" />
        </mxCell>
      </root>
    </mxGraphModel>
  </diagram>
</mxfile>
